<svg xmlns="http://www.w3.org/2000/svg" width="200" height="109.303" viewBox="0 0 200 109.303">
  <g id="Group_2" data-name="Group 2" transform="translate(0 0.028)">
    <path id="Path_1" data-name="Path 1" d="M277.055,150.1l-8.666,10.734L275.3,148.87a17.313,17.313,0,0,0-3.344-1.59,17.222,17.222,0,1,0-34.343-.94l15.653,1.03-15.378,1.381a17.247,17.247,0,0,0,7.626,11.325l8.569-5.56-7.127,6.389a17.257,17.257,0,0,0,2.189.941,17.218,17.218,0,0,0,11.46,17.941,17.22,17.22,0,0,0,23.426,17.726,5.906,5.906,0,0,0,.8,1.9,5.655,5.655,0,0,0,2.18,2.02,5.883,5.883,0,0,0,3.094,4.85,5.893,5.893,0,0,0,3.094,4.848,5.89,5.89,0,0,0,3.093,4.851,5.676,5.676,0,0,0,.914,2.828c1.4,2.19,3.89,3.1,5.563,2.039s1.9-3.709.5-5.9a5.682,5.682,0,0,0-2.177-2.024,5.893,5.893,0,0,0-3.1-4.855,5.89,5.89,0,0,0-3.1-4.848,5.883,5.883,0,0,0-3.094-4.848,5.674,5.674,0,0,0-.916-2.828,5.879,5.879,0,0,0-1.359-1.506,17.218,17.218,0,0,0-6.1-28.811,17.232,17.232,0,0,0-6.36-15.123Z" transform="translate(-199.174 -128.39)" fill="#f86b76" opacity="0.232"/>
    <path id="Path_2" data-name="Path 2" d="M622.641,188.982l-1.546.98.94-1.708a1.529,1.529,0,0,0-.936-.34h-.024a1.833,1.833,0,0,1-.321-.024l-.525.34.226-.41a1.869,1.869,0,0,1-.918-.695l-.938.595.593-1.077a2.748,2.748,0,0,0-2.1-1.064,2.88,2.88,0,0,0-2.406,1.485,1.8,1.8,0,0,1-1.591.85h-.053c-1.077,0-1.951,1.222-1.951,2.719s.873,2.727,1.951,2.727a1.465,1.465,0,0,0,.68-.17,2.814,2.814,0,0,1,2.36-.046,2.467,2.467,0,0,0,2.007,0,2.817,2.817,0,0,1,2.34.046,1.462,1.462,0,0,0,.68.17c1.077,0,1.951-1.22,1.951-2.727A3.446,3.446,0,0,0,622.641,188.982Z" transform="translate(-509.206 -175.885)" fill="#f86b76" opacity="0.232"/>
    <path id="Path_3" data-name="Path 3" d="M619.719,210.38a2.889,2.889,0,0,0-1.67.182,2.467,2.467,0,0,1-2.007,0,2.817,2.817,0,0,0-2.362.046,1.453,1.453,0,0,1-.68.17c-.958,0-1.754-.963-1.92-2.234a1.857,1.857,0,0,0,.479-.51,2.69,2.69,0,0,1,4.8-.017,1.844,1.844,0,0,0,1.59.873h.026A1.98,1.98,0,0,1,619.719,210.38Z" transform="translate(-509.197 -193.292)" opacity="0.08"/>
    <path id="Path_4" data-name="Path 4" d="M959.641,149.982l-1.546.98.94-1.708a1.529,1.529,0,0,0-.936-.34h-.024a1.833,1.833,0,0,1-.321-.024l-.525.34.226-.41a1.869,1.869,0,0,1-.918-.695l-.938.595.593-1.077a2.748,2.748,0,0,0-2.1-1.064,2.88,2.88,0,0,0-2.406,1.485,1.8,1.8,0,0,1-1.59.85h-.053c-1.077,0-1.951,1.222-1.951,2.719s.873,2.727,1.951,2.727a1.465,1.465,0,0,0,.68-.17,2.814,2.814,0,0,1,2.36-.046,2.467,2.467,0,0,0,2.007,0,2.817,2.817,0,0,1,2.34.046,1.463,1.463,0,0,0,.68.17c1.077,0,1.951-1.22,1.951-2.727A3.445,3.445,0,0,0,959.641,149.982Z" transform="translate(-788.941 -143.512)" fill="#f86b76" opacity="0.232"/>
    <path id="Path_5" data-name="Path 5" d="M956.719,171.38a2.889,2.889,0,0,0-1.67.182,2.467,2.467,0,0,1-2.007,0,2.817,2.817,0,0,0-2.362.046,1.453,1.453,0,0,1-.68.17c-.958,0-1.754-.963-1.92-2.234a1.857,1.857,0,0,0,.479-.51,2.69,2.69,0,0,1,4.8-.017,1.844,1.844,0,0,0,1.59.873h.026A1.98,1.98,0,0,1,956.719,171.38Z" transform="translate(-788.933 -160.919)" opacity="0.08"/>
    <path id="Path_6" data-name="Path 6" d="M788.126,234.379l2.491,1.584-1.509-2.744a2.46,2.46,0,0,1,1.5-.535h.039a2.9,2.9,0,0,0,.51-.037l.841.534-.365-.656a3.021,3.021,0,0,0,1.473-1.118l1.507.955-.941-1.732a4.407,4.407,0,0,1,3.376-1.7,4.634,4.634,0,0,1,3.866,2.379,2.889,2.889,0,0,0,2.549,1.378h.085c1.73,0,3.132,1.961,3.132,4.381s-1.4,4.382-3.132,4.382a2.355,2.355,0,0,1-1.093-.274,4.518,4.518,0,0,0-3.791-.073,3.956,3.956,0,0,1-3.229,0,4.527,4.527,0,0,0-3.759.073,2.362,2.362,0,0,1-1.079.267c-1.732,0-3.133-1.961-3.133-4.382A5.57,5.57,0,0,1,788.126,234.379Z" transform="translate(-655.613 -211.869)" fill="#f86b76" opacity="0.232"/>
    <path id="Path_7" data-name="Path 7" d="M818.89,268.68a4.649,4.649,0,0,1,2.685.292,3.956,3.956,0,0,0,3.229,0,4.522,4.522,0,0,1,3.793.073,2.348,2.348,0,0,0,1.091.274c1.538,0,2.816-1.548,3.082-3.59A2.965,2.965,0,0,1,832,264.9a4.324,4.324,0,0,0-7.713-.02,2.963,2.963,0,0,1-2.549,1.4H821.7A3.193,3.193,0,0,0,818.89,268.68Z" transform="translate(-681.695 -239.751)" opacity="0.08"/>
    <ellipse id="Ellipse_2" data-name="Ellipse 2" cx="100" cy="3.568" rx="100" ry="3.568" transform="translate(0 102.138)" fill="#3f3d56"/>
    <rect id="Rectangle_21" data-name="Rectangle 21" width="141.716" height="77.485" rx="1.42" transform="translate(29.142 26.48)" fill="#d5dbff"/>
    <path id="Path_8" data-name="Path 8" d="M324.716,287.83V289.8H183V287.83a3.47,3.47,0,0,1,3.47-3.47H321.246A3.47,3.47,0,0,1,324.716,287.83Z" transform="translate(-153.858 -257.88)" fill="#3f3d56"/>
    <circle id="Ellipse_3" data-name="Ellipse 3" cx="1.02" cy="1.02" r="1.02" transform="translate(31.776 28.264)" fill="#6c63ff"/>
    <circle id="Ellipse_4" data-name="Ellipse 4" cx="1.02" cy="1.02" r="1.02" transform="translate(34.325 28.264)" fill="#6c63ff"/>
    <circle id="Ellipse_5" data-name="Ellipse 5" cx="1.02" cy="1.02" r="1.02" transform="translate(36.873 28.264)" fill="#6c63ff"/>
    <path id="Path_9" data-name="Path 9" d="M347.5,503.86" transform="translate(-290.406 -440.082)" fill="none" stroke="#f2f2f2" stroke-miterlimit="10" stroke-width="2"/>
    <path id="Path_10" data-name="Path 10" d="M333.5,502.86" transform="translate(-278.785 -439.252)" fill="none" stroke="#f2f2f2" stroke-miterlimit="10" stroke-width="2"/>
    <rect id="Rectangle_22" data-name="Rectangle 22" width="16.313" height="13.254" rx="6.627" transform="translate(50.722 40.923)" fill="#fff"/>
    <rect id="Rectangle_23" data-name="Rectangle 23" width="16.313" height="13.254" rx="6.627" transform="translate(69.754 40.923)" fill="#6c63ff"/>
    <rect id="Rectangle_24" data-name="Rectangle 24" width="16.313" height="13.254" rx="6.627" transform="translate(88.785 40.923)" fill="#fff"/>
    <rect id="Rectangle_25" data-name="Rectangle 25" width="16.313" height="13.254" rx="6.627" transform="translate(107.816 40.923)" fill="#fff"/>
    <rect id="Rectangle_26" data-name="Rectangle 26" width="16.313" height="13.254" rx="6.627" transform="translate(126.848 40.923)" fill="#6c63ff"/>
    <rect id="Rectangle_27" data-name="Rectangle 27" width="16.313" height="13.254" rx="6.627" transform="translate(50.722 63.183)" fill="#fff"/>
    <rect id="Rectangle_28" data-name="Rectangle 28" width="16.313" height="13.254" rx="6.627" transform="translate(69.754 63.183)" fill="#fff"/>
    <rect id="Rectangle_29" data-name="Rectangle 29" width="16.313" height="13.254" rx="6.627" transform="translate(88.785 63.183)" fill="#6c63ff"/>
    <rect id="Rectangle_30" data-name="Rectangle 30" width="16.313" height="13.254" rx="6.627" transform="translate(107.816 63.183)" fill="#fff"/>
    <rect id="Rectangle_31" data-name="Rectangle 31" width="16.313" height="13.254" rx="6.627" transform="translate(126.848 63.183)" fill="#fff"/>
    <rect id="Rectangle_32" data-name="Rectangle 32" width="16.313" height="13.254" rx="6.627" transform="translate(50.722 85.443)" fill="#fff"/>
    <rect id="Rectangle_33" data-name="Rectangle 33" width="16.313" height="13.254" rx="6.627" transform="translate(69.754 85.443)" fill="#fff"/>
    <rect id="Rectangle_34" data-name="Rectangle 34" width="16.313" height="13.254" rx="6.627" transform="translate(88.785 85.443)" fill="#fff"/>
    <rect id="Rectangle_35" data-name="Rectangle 35" width="16.313" height="13.254" rx="6.627" transform="translate(107.816 85.443)" fill="#6c63ff" opacity="0.3"/>
    <rect id="Rectangle_36" data-name="Rectangle 36" width="16.313" height="13.254" rx="6.627" transform="translate(126.848 85.443)" fill="#fff"/>
    <path id="Path_11" data-name="Path 11" d="M487.316,350.115l-.86-.865a.455.455,0,0,0-.647,0l-5.4,5.351-2.282-2.3a.452.452,0,0,0-.642,0l-.868.858a.462.462,0,0,0,0,.649l3.465,3.492a.462.462,0,0,0,.649,0l6.583-6.535a.455.455,0,0,0,0-.649Z" transform="translate(-397.474 -311.632)" fill="#3acc6c"/>
    <path id="Path_12" data-name="Path 12" d="M827.316,350.115l-.86-.865a.455.455,0,0,0-.647,0l-5.4,5.351-2.282-2.3a.452.452,0,0,0-.642,0l-.868.858a.462.462,0,0,0,0,.649l3.465,3.492a.462.462,0,0,0,.649,0l6.583-6.535a.455.455,0,0,0,0-.649Z" transform="translate(-679.7 -311.632)" fill="#3acc6c"/>
    <path id="Path_13" data-name="Path 13" d="M599.316,480.115l-.86-.865a.455.455,0,0,0-.647,0l-5.4,5.351-2.282-2.3a.452.452,0,0,0-.642,0l-.868.858a.462.462,0,0,0,0,.649l3.465,3.492a.462.462,0,0,0,.649,0l6.583-6.535a.455.455,0,0,0,0-.649Z" transform="translate(-490.443 -419.542)" fill="#3acc6c"/>
    <path id="Path_14" data-name="Path 14" d="M710.316,616.115l-.86-.865a.455.455,0,0,0-.647,0l-5.4,5.351-2.282-2.3a.452.452,0,0,0-.642,0l-.868.85a.462.462,0,0,0,0,.649l3.465,3.492a.462.462,0,0,0,.649,0l6.583-6.535A.455.455,0,0,0,710.316,616.115Z" transform="translate(-582.581 -532.432)" fill="#3acc6c"/>
    <path id="Path_15" data-name="Path 15" d="M1002.027,646.067c-.51-.936.068-2.085.729-2.919a4.712,4.712,0,0,0,1.446-2.768c-.026-1.529-1.648-2.433-2.945-3.244a14.269,14.269,0,0,1-2.644-2.126,3.873,3.873,0,0,1-.812-1.087,4.409,4.409,0,0,1-.245-1.932q.087-3.273.325-6.54" transform="translate(-829.996 -541.011)" fill="none" stroke="#3f3d56" stroke-miterlimit="10" stroke-width="4"/>
    <path id="Path_16" data-name="Path 16" d="M984.989,613.64a2.379,2.379,0,0,1,1.189-1.954l.534,1.057-.017-1.28a2.417,2.417,0,0,1,.787-.1,2.379,2.379,0,1,1-2.493,2.272Z" transform="translate(-819.568 -529.32)" fill="#57b894"/>
    <path id="Path_17" data-name="Path 17" d="M1008.705,702.79a2.379,2.379,0,1,0-.115-1.92l1.49,1.212-1.64-.379A2.377,2.377,0,0,0,1008.705,702.79Z" transform="translate(-839.036 -602.329)" fill="#57b894"/>
    <path id="Path_18" data-name="Path 18" d="M1005.887,669.234a2.379,2.379,0,0,0,.748-4.671l.014.982-.54-1.069h0a2.379,2.379,0,0,0-2.493,2.27,2.353,2.353,0,0,0,.1.814A2.379,2.379,0,0,0,1005.887,669.234Z" transform="translate(-835.029 -573.403)" fill="#57b894"/>
    <path id="Path_19" data-name="Path 19" d="M971.775,646.586a2.379,2.379,0,1,0-1.055-4.464l.421,1.155-.867-.833a2.379,2.379,0,0,0-.77,1.647,2.341,2.341,0,0,0,.059.658A2.379,2.379,0,0,0,971.775,646.586Z" transform="translate(-806.715 -554.607)" fill="#57b894"/>
    <path id="Path_20" data-name="Path 20" d="M985.56,620.654c.551.059,1.086.231,1.638.265a1.781,1.781,0,0,0,1.509-.527,7.383,7.383,0,0,0,.44-.777,1.7,1.7,0,0,1,.6-.566,2.379,2.379,0,1,1-4.459,1.584Q985.426,620.639,985.56,620.654Z" transform="translate(-819.82 -535.698)" opacity="0.1"/>
    <path id="Path_21" data-name="Path 21" d="M972.106,653.219a2.379,2.379,0,0,0,2.268-3.4,1.762,1.762,0,0,0-.479.479,7.792,7.792,0,0,1-.472.788,1.953,1.953,0,0,1-1.582.554c-.576-.025-1.132-.19-1.7-.243-.08,0-.16-.012-.241-.014A2.379,2.379,0,0,0,972.106,653.219Z" transform="translate(-807.045 -561.24)" opacity="0.1"/>
    <path id="Path_22" data-name="Path 22" d="M1006.416,676.088a2.379,2.379,0,0,0,2.287-3.358,1.95,1.95,0,0,0-.51.484c-.185.262-.3.562-.51.8a2.208,2.208,0,0,1-1.687.593c-.608-.014-1.161-.158-1.747-.2a2.379,2.379,0,0,0,2.167,1.681Z" transform="translate(-835.558 -580.257)" opacity="0.1"/>
    <path id="Path_23" data-name="Path 23" d="M1010,710.236a2.382,2.382,0,0,0,4.348-1.946,2.307,2.307,0,0,0-.523.467,10.358,10.358,0,0,1-.639.85,2.971,2.971,0,0,1-1.976.7A10.182,10.182,0,0,1,1010,710.236Z" transform="translate(-840.331 -609.774)" opacity="0.1"/>
    <path id="Path_24" data-name="Path 24" d="M1010.85,735.463a6.9,6.9,0,0,1-2.45-.462c-.568-.4-2.889-.885-3.035-.238s-2.829,3.229-.705,3.239a18.384,18.384,0,0,0,5.506-.68C1010.733,736.982,1010.85,735.463,1010.85,735.463Z" transform="translate(-835.222 -631.486)" fill="#656380"/>
    <path id="Path_25" data-name="Path 25" d="M1004.657,742.719a17.858,17.858,0,0,0,5.5-.68c.432-.263.6-1.2.661-1.64h.063s-.119,1.519-.68,1.869a17.9,17.9,0,0,1-5.506.68c-.613,0-.824-.223-.812-.545C1003.967,742.594,1004.2,742.711,1004.657,742.719Z" transform="translate(-835.257 -636.428)" opacity="0.2"/>
    <path id="Path_26" data-name="Path 26" d="M163.581,593.376c-.746-1.38.1-3.072,1.072-4.3s2.158-2.511,2.134-4.078c-.037-2.255-2.43-3.585-4.343-4.782a21.174,21.174,0,0,1-3.9-3.133,5.742,5.742,0,0,1-1.189-1.6,6.5,6.5,0,0,1-.359-2.851q.122-4.826.476-9.643" transform="translate(-132.266 -489.156)" fill="none" stroke="#3f3d56" stroke-miterlimit="10" stroke-width="4"/>
    <path id="Path_27" data-name="Path 27" d="M138.391,545.516a3.514,3.514,0,0,1,1.755-2.889l.788,1.558-.024-1.886a3.517,3.517,0,1,1-2.52,3.21Z" transform="translate(-116.826 -471.87)" fill="#57b894"/>
    <path id="Path_28" data-name="Path 28" d="M173.394,676.968a3.516,3.516,0,1,0-.17-2.831l2.2,1.786-2.42-.559A3.5,3.5,0,0,0,173.394,676.968Z" transform="translate(-145.557 -579.522)" fill="#57b894"/>
    <path id="Path_29" data-name="Path 29" d="M169.158,627.477a3.517,3.517,0,0,0,1.115-6.9l.019,1.448-.8-1.575h-.008a3.517,3.517,0,1,0-.328,7.027Z" transform="translate(-139.585 -536.858)" fill="#57b894"/>
    <path id="Path_30" data-name="Path 30" d="M118.891,594.039a3.519,3.519,0,0,0,3.677-3.349,3.474,3.474,0,0,0-.34-1.667,3.512,3.512,0,0,0-4.9-1.565l.62,1.7-1.278-1.227a3.517,3.517,0,0,0,2.209,6.105Z" transform="translate(-97.855 -509.101)" fill="#57b894"/>
    <path id="Path_31" data-name="Path 31" d="M139.249,555.894c.811.09,1.6.34,2.415.393a2.618,2.618,0,0,0,2.224-.778,10.927,10.927,0,0,0,.651-1.144,2.509,2.509,0,0,1,.885-.834,3.517,3.517,0,1,1-6.574,2.335C138.983,555.87,139.117,555.88,139.249,555.894Z" transform="translate(-117.21 -481.312)" opacity="0.1"/>
    <path id="Path_32" data-name="Path 32" d="M119.346,603.886a3.519,3.519,0,0,0,3.677-3.349,3.473,3.473,0,0,0-.34-1.667,2.616,2.616,0,0,0-.707.707,11.236,11.236,0,0,1-.7,1.162,2.888,2.888,0,0,1-2.331.816c-.848-.034-1.669-.279-2.513-.357-.117-.01-.236-.019-.355-.022a3.516,3.516,0,0,0,3.266,2.71Z" transform="translate(-98.309 -518.947)" opacity="0.1"/>
    <path id="Path_33" data-name="Path 33" d="M169.918,637.632a3.516,3.516,0,0,0,3.373-4.952,2.836,2.836,0,0,0-.743.715,12.392,12.392,0,0,1-.765,1.189,3.256,3.256,0,0,1-2.489.873c-.87-.02-1.709-.233-2.574-.3A3.519,3.519,0,0,0,169.918,637.632Z" transform="translate(-140.344 -547.012)" opacity="0.1"/>
    <path id="Path_34" data-name="Path 34" d="M175.32,687.98a3.517,3.517,0,0,0,6.411-2.87,3.554,3.554,0,0,0-.773.68,15.018,15.018,0,0,1-.941,1.251,4.388,4.388,0,0,1-2.913,1.02A15.133,15.133,0,0,1,175.32,687.98Z" transform="translate(-147.483 -590.533)" opacity="0.1"/>
    <path id="Path_35" data-name="Path 35" d="M176.55,725.192s-2.775-.085-3.613-.68-4.268-1.307-4.476-.352-4.172,4.758-1.038,4.777,7.281-.488,8.116-1S176.55,725.192,176.55,725.192Z" transform="translate(-139.931 -622.561)" fill="#656380"/>
    <path id="Path_36" data-name="Path 36" d="M167.41,735.9c3.133.025,7.281-.488,8.116-1,.636-.387.89-1.777.974-2.418h.093s-.17,2.238-1.011,2.746-4.982,1.02-8.116,1c-.9,0-1.217-.33-1.2-.805C166.391,735.719,166.731,735.9,167.41,735.9Z" transform="translate(-139.968 -629.862)" opacity="0.2"/>
    <path id="Path_37" data-name="Path 37" d="M848.68,689.511a.821.821,0,0,0-.054.223c-.27,1.779-1.825,3.093-2.393,4.8a4.6,4.6,0,0,0,.2,3.376,1.116,1.116,0,0,1,.155.488c0,.17-.136.355-.308.34a2.463,2.463,0,0,1-1.079-.561,3.842,3.842,0,0,1-1.1-1.02,1.9,1.9,0,0,1-.325-1.432c.2-.928.912-1.755,1.133-2.68l.579-2.4a3.751,3.751,0,0,1,.476-1.28.79.79,0,0,1,.4-.34.948.948,0,0,1,.3-.024A7.223,7.223,0,0,1,848.68,689.511Z" transform="translate(-702.332 -593.763)" fill="#ffc1c7"/>
    <path id="Path_38" data-name="Path 38" d="M842.783,728.4a.322.322,0,0,1,.184.014.456.456,0,0,1,.17.218,1.991,1.991,0,0,0,.8.8,2.321,2.321,0,0,1,.391.221.454.454,0,0,1,.189.387c-.027.223-.27.34-.484.406a3.633,3.633,0,0,1-1.417.124,1.242,1.242,0,0,1-.51-.143,1.508,1.508,0,0,1-.393-.4,9.852,9.852,0,0,0-1.257-1.426,5.5,5.5,0,0,1-.659-.613,1.1,1.1,0,0,1-.277-.829c.066-.442.484-.731.748-1.093a7.464,7.464,0,0,1,1.108,1.735,4.993,4.993,0,0,0,.316.746c.121.2.294.428.51.3S842.469,728.452,842.783,728.4Z" transform="translate(-698.816 -624.533)" fill="#ff6584"/>
    <path id="Path_39" data-name="Path 39" d="M860.569,615.27a2.236,2.236,0,0,1,.151,1.006l-.015,2.537a10.188,10.188,0,0,1-.078,1.477c-.134.882-.5,1.716-.654,2.595a21.955,21.955,0,0,1-.364,2.483c-.377,1.242-1.376,2.226-1.728,3.477a.394.394,0,0,1-.1.2.29.29,0,0,1-.143.061,1.518,1.518,0,0,1-.817-.153l-1.827-.717c-.126.054-.212-.09-.206-.229a.665.665,0,0,1,.182-.362,6.069,6.069,0,0,0,.588-.906,8.137,8.137,0,0,0,.85-3.278,24.225,24.225,0,0,0-.1-3.4q-.093-1.227-.187-2.45a1.758,1.758,0,0,1,.17-1.135,1.677,1.677,0,0,1,.958-.571A15.578,15.578,0,0,1,860.569,615.27Z" transform="translate(-711.493 -532.561)" fill="#3c354c"/>
    <path id="Path_40" data-name="Path 40" d="M860.569,615.27a2.236,2.236,0,0,1,.151,1.006l-.015,2.537a10.188,10.188,0,0,1-.078,1.477c-.134.882-.5,1.716-.654,2.595a21.955,21.955,0,0,1-.364,2.483c-.377,1.242-1.376,2.226-1.728,3.477a.394.394,0,0,1-.1.2.29.29,0,0,1-.143.061,1.518,1.518,0,0,1-.817-.153l-1.827-.717c-.126.054-.212-.09-.206-.229a.665.665,0,0,1,.182-.362,6.069,6.069,0,0,0,.588-.906,8.137,8.137,0,0,0,.85-3.278,24.225,24.225,0,0,0-.1-3.4q-.093-1.227-.187-2.45a1.758,1.758,0,0,1,.17-1.135,1.677,1.677,0,0,1,.958-.571A15.578,15.578,0,0,1,860.569,615.27Z" transform="translate(-711.493 -532.561)" opacity="0.1"/>
    <path id="Path_41" data-name="Path 41" d="M895.262,616.729a5.281,5.281,0,0,0-.61,1.174,6.274,6.274,0,0,0-.206.955,20.953,20.953,0,0,0-.386,4.53.955.955,0,0,1-.85-.211,2.428,2.428,0,0,1-.556-.719,7.648,7.648,0,0,1-.457-.914,5.726,5.726,0,0,1-.433-2.228.385.385,0,0,1,.031-.182.418.418,0,0,1,.09-.107,10.318,10.318,0,0,0,2.121-3.5,6.475,6.475,0,0,0,.455-1.286,2.949,2.949,0,0,1,.381-1.3,1.639,1.639,0,0,1,1.077-.51,2.027,2.027,0,0,1,.87.036c.309.1,1.042.457,1.084.822s-.61.833-.822,1.076A20.706,20.706,0,0,0,895.262,616.729Z" transform="translate(-742.186 -530.176)" fill="#ffc1c7"/>
    <path id="Path_42" data-name="Path 42" d="M888.675,654.9c.218.365.522.773.367,1.167a.719.719,0,0,1-1.06.24,1.634,1.634,0,0,1-.265-.255,26.131,26.131,0,0,1-2.549-3.354,3.3,3.3,0,0,1-.6-1.429.3.3,0,0,1,.024-.17.328.328,0,0,1,.133-.112,6.6,6.6,0,0,1,1.471-.612,3.123,3.123,0,0,0,.435,1.657,7.922,7.922,0,0,1,.561,1.135c.115.285.234.308.532.311.24,0,.411-.029.527.214A12.746,12.746,0,0,0,888.675,654.9Z" transform="translate(-736.206 -561.696)" fill="#ff6584"/>
    <path id="Path_43" data-name="Path 43" d="M857.055,590c2.185.034,4.367.187,6.547.34l1.417.1a5.291,5.291,0,0,1,1.235.184,5.425,5.425,0,0,1,1.094.542.96.96,0,0,1,.306.245.916.916,0,0,1,.129.34,1.936,1.936,0,0,1,.08.785,1.911,1.911,0,0,1-.209.539l-.992,1.961c-.318-.1-.564-.311-.875-.433a4.317,4.317,0,0,0-1.159-.221l-1.033-.1a.294.294,0,0,1-.029-.2c-.907.316-1.811.61-2.719.926-1.665.579-3.334,1.161-4.938,1.895a1.017,1.017,0,0,1-.753.131.783.783,0,0,1-.236-.156,2.429,2.429,0,0,1-.731-1.422,5.307,5.307,0,0,1,.024-1.623,4.694,4.694,0,0,1,1.334-2.992A2.378,2.378,0,0,1,857.055,590Z" transform="translate(-710.955 -511.583)" fill="#3c354c"/>
    <path id="Path_44" data-name="Path 44" d="M911.8,601.24a10.459,10.459,0,0,0-1.4.822,1.144,1.144,0,0,0-.185.151,1.388,1.388,0,0,0-.114.15,2.808,2.808,0,0,0-.479.955" transform="translate(-757.008 -520.915)" fill="none" stroke="#000" stroke-miterlimit="10" stroke-width="1" opacity="0.1"/>
    <path id="Path_45" data-name="Path 45" d="M757.063,581.528a3.978,3.978,0,0,0-.7.964c-.518.816-1.263,1.472-1.774,2.292a4.273,4.273,0,0,1-.714,1.02,2.291,2.291,0,0,1-1.39.5,3.2,3.2,0,0,0-1.324.226,2.5,2.5,0,0,0-.8.85v.01a.384.384,0,0,0,.459.571,6.832,6.832,0,0,1,1.127-.328,7.133,7.133,0,0,0,1-.228,4.691,4.691,0,0,0,.9-.477,5.83,5.83,0,0,0,.705-.495c.274-.233.51-.51.768-.756a12.027,12.027,0,0,1,1.189-.863,9.072,9.072,0,0,0,2.658-2.9.66.66,0,0,0,.121-.386.7.7,0,0,0-.17-.34c-.3-.382-.574-.7-.992-.34C757.8,581.114,757.386,581.248,757.063,581.528Z" transform="translate(-624.761 -503.852)" fill="#ffc1c7"/>
    <path id="Path_46" data-name="Path 46" d="M824.121,530.763a.51.51,0,0,0,.109.3c.112.114.3.09.457.08a1.511,1.511,0,0,1,1.2.416,2.755,2.755,0,0,1,.442,2.2,1.607,1.607,0,0,1-.865.873,4.034,4.034,0,0,1-1.22.3,3.042,3.042,0,0,1-1.054,0,4.587,4.587,0,0,1-1.144-.545,6.273,6.273,0,0,1-.753-.425,1.189,1.189,0,0,1-.491-.69.374.374,0,0,1,.124-.4.707.707,0,0,1,.19-.058.805.805,0,0,0,.579-.569c.114-.44-.16-.884-.187-1.337a.634.634,0,0,1,.08-.379.833.833,0,0,1,.382-.272l.85-.381a5.081,5.081,0,0,1,.8-.355c.27-.07.289.117.34.34C824.024,530.162,824.08,530.463,824.121,530.763Z" transform="translate(-683.27 -461.368)" fill="#ffc1c7"/>
    <path id="Path_47" data-name="Path 47" d="M824.121,530.763a.51.51,0,0,0,.109.3c.112.114.3.09.457.08a1.511,1.511,0,0,1,1.2.416,2.755,2.755,0,0,1,.442,2.2,1.607,1.607,0,0,1-.865.873,4.034,4.034,0,0,1-1.22.3,3.042,3.042,0,0,1-1.054,0,4.587,4.587,0,0,1-1.144-.545,6.273,6.273,0,0,1-.753-.425,1.189,1.189,0,0,1-.491-.69.374.374,0,0,1,.124-.4.707.707,0,0,1,.19-.058.805.805,0,0,0,.579-.569c.114-.44-.16-.884-.187-1.337a.634.634,0,0,1,.08-.379.833.833,0,0,1,.382-.272l.85-.381a5.081,5.081,0,0,1,.8-.355c.27-.07.289.117.34.34C824.024,530.162,824.08,530.463,824.121,530.763Z" transform="translate(-683.27 -461.368)" opacity="0.1"/>
    <circle id="Ellipse_6" data-name="Ellipse 6" cx="2.119" cy="2.119" r="2.119" transform="translate(136.522 65.868)" fill="#ffc1c7"/>
    <path id="Path_48" data-name="Path 48" d="M803.63,538.761a2.913,2.913,0,0,1,1-.252,1.178,1.178,0,0,1,.928.367,5.7,5.7,0,0,1,.423.807c.313.51.923.743,1.41,1.091a1.064,1.064,0,0,1,.292.286,1.561,1.561,0,0,1,.121.9,4.327,4.327,0,0,0,.624,2.144,12.656,12.656,0,0,0,1.342,1.82,1.817,1.817,0,0,1,.292.433c.119.285.085.63.262.884a2.47,2.47,0,0,0-1.252.17c-.613.253-.642,1.15-.931,1.749a22.77,22.77,0,0,1-1.98,3.1,3.964,3.964,0,0,0-.469.777,2.327,2.327,0,0,1-.054-.879,17.77,17.77,0,0,0-.522-1.9,8.948,8.948,0,0,1-.056-.979,4.685,4.685,0,0,0-.318-1.444,9.271,9.271,0,0,0-.754-1.415,2,2,0,0,0-.569-.68c-.282-.184-.671-.236-.85-.522a1.137,1.137,0,0,0-.17-.275.635.635,0,0,0-.2-.1,8.7,8.7,0,0,1-1.006-.557,1.618,1.618,0,0,0-1.1-.24,13.588,13.588,0,0,1-2.35,2.155,1.905,1.905,0,0,0-.69.705,3.589,3.589,0,0,1-1.116-.834.566.566,0,0,1-.119-.17c-.087-.248.17-.471.374-.627a5.08,5.08,0,0,0,1.689-2.248,3.227,3.227,0,0,1,.863-1.6,2.975,2.975,0,0,0,.447-.314,5.654,5.654,0,0,0,.34-.53.9.9,0,0,1,.943-.319,4.172,4.172,0,0,1,.562.27,2.922,2.922,0,0,0,1.529.112l1.99-.2a.68.68,0,0,0-.146-.646,1.98,1.98,0,0,0-.263-.209A1.463,1.463,0,0,1,803.63,538.761Z" transform="translate(-662.527 -468.842)" fill="#ff6584"/>
    <path id="Path_49" data-name="Path 49" d="M813.344,506.588a1.832,1.832,0,0,1,1.065,1.043,4.259,4.259,0,0,0,.224.6,3.44,3.44,0,0,0,.552.615.923.923,0,0,1,.309.739c-.017.1-.061.2-.075.3-.06.44.44.743.593,1.159.2.547-.234,1.2.031,1.716a5.5,5.5,0,0,0,.4.51c.114.17.126.476-.066.579-.3.161-.646-.311-.964-.187-.082.032-.144.1-.224.138-.223.1-.483-.1-.556-.33a1.735,1.735,0,0,1,.014-.724.875.875,0,0,0-.136-.695c-.129-.148-.34-.206-.474-.34a1.236,1.236,0,0,1-.17-.994,2.466,2.466,0,0,0-.574-1.959.128.128,0,0,0-.09-.049.145.145,0,0,0-.09.056,4.231,4.231,0,0,1-.761.63.479.479,0,0,1-.272.1.172.172,0,0,1-.17-.192,2,2,0,0,0-.635.466.664.664,0,0,1-.051-.292,2.74,2.74,0,0,1-.34.52,4.24,4.24,0,0,0-.374.462.68.68,0,0,0-.1.566c.19.545,1.161.42,1.371.958.046.121.044.253.092.372.094.231.34.34.544.493s.381.413.258.629c-.107.185-.357.206-.564.253a1.359,1.359,0,0,0-.85.639.8.8,0,0,1-.219.3.617.617,0,0,1-.277.068,1.023,1.023,0,0,1-.819-.17c-.267-.28-.141-.79-.413-1.065-.063-.061-.141-.105-.2-.17a.758.758,0,0,1-.151-.569,16.278,16.278,0,0,0,.2-1.686,9.642,9.642,0,0,0-.216-1.111,2.99,2.99,0,0,1,.6-2.445,2.62,2.62,0,0,1,1.749-.85A3.555,3.555,0,0,1,813.344,506.588Z" transform="translate(-673.582 -442.263)" fill="#3c354c"/>
  </g>
</svg>
